<svg width="1440" height="138" viewBox="0 0 1440 138" fill="none" xmlns="http://www.w3.org/2000/svg">
<g clip-path="url(#clip0_71_33130)">
<mask id="mask0_71_33130" style="mask-type:luminance" maskUnits="userSpaceOnUse" x="0" y="0" width="1440" height="138">
<rect width="1440" height="138" fill="white"/>
</mask>
<g mask="url(#mask0_71_33130)">
<g clip-path="url(#clip1_71_33130)">
<line x1="-28.3536" y1="137.363" x2="111.646" y2="-2.63675" stroke="#C5CCD1"/>
<line x1="-36.3536" y1="137.363" x2="103.646" y2="-2.63675" stroke="#C5CCD1"/>
<line x1="-44.3536" y1="137.363" x2="95.6464" y2="-2.63675" stroke="#C5CCD1"/>
<line x1="-52.3536" y1="137.363" x2="87.6464" y2="-2.63675" stroke="#C5CCD1"/>
<line x1="-60.3536" y1="137.363" x2="79.6464" y2="-2.63675" stroke="#C5CCD1"/>
<line x1="-68.3536" y1="137.363" x2="71.6464" y2="-2.63675" stroke="#C5CCD1"/>
<line x1="-76.3536" y1="137.363" x2="63.6464" y2="-2.63675" stroke="#C5CCD1"/>
<line x1="-84.3536" y1="137.363" x2="55.6464" y2="-2.63675" stroke="#C5CCD1"/>
<line x1="-92.3536" y1="137.363" x2="47.6464" y2="-2.63675" stroke="#C5CCD1"/>
<line x1="-100.354" y1="137.363" x2="39.6464" y2="-2.63675" stroke="#C5CCD1"/>
<line x1="-108.354" y1="137.363" x2="31.6464" y2="-2.63675" stroke="#C5CCD1"/>
<line x1="-116.354" y1="137.363" x2="23.6464" y2="-2.63675" stroke="#C5CCD1"/>
<line x1="-124.354" y1="137.363" x2="15.6464" y2="-2.63675" stroke="#C5CCD1"/>
<line x1="-132.354" y1="137.363" x2="7.64644" y2="-2.63675" stroke="#C5CCD1"/>
<line x1="-20.3536" y1="137.363" x2="119.646" y2="-2.63675" stroke="#C5CCD1"/>
<line x1="-12.3536" y1="137.363" x2="127.646" y2="-2.63675" stroke="#C5CCD1"/>
<line x1="-4.35355" y1="137.363" x2="135.646" y2="-2.63675" stroke="#C5CCD1"/>
<line x1="3.64645" y1="137.363" x2="143.646" y2="-2.63675" stroke="#C5CCD1"/>
<line x1="11.6464" y1="137.363" x2="151.646" y2="-2.63675" stroke="#C5CCD1"/>
<line x1="19.6464" y1="137.363" x2="159.646" y2="-2.63675" stroke="#C5CCD1"/>
<line x1="27.6464" y1="137.363" x2="167.646" y2="-2.63675" stroke="#C5CCD1"/>
<line x1="35.6464" y1="137.363" x2="175.646" y2="-2.63675" stroke="#C5CCD1"/>
<line x1="43.6464" y1="137.363" x2="183.646" y2="-2.63675" stroke="#C5CCD1"/>
<line x1="51.6464" y1="137.363" x2="191.646" y2="-2.63675" stroke="#C5CCD1"/>
<line x1="59.6464" y1="137.363" x2="199.646" y2="-2.63675" stroke="#C5CCD1"/>
<line x1="67.6464" y1="137.363" x2="207.646" y2="-2.63675" stroke="#C5CCD1"/>
<line x1="75.6464" y1="137.363" x2="215.646" y2="-2.63675" stroke="#C5CCD1"/>
<line x1="83.6464" y1="137.363" x2="223.646" y2="-2.63675" stroke="#C5CCD1"/>
<line x1="91.6464" y1="137.363" x2="231.646" y2="-2.63675" stroke="#C5CCD1"/>
<line x1="99.6464" y1="137.363" x2="239.646" y2="-2.63675" stroke="#C5CCD1"/>
<line x1="107.646" y1="137.363" x2="247.646" y2="-2.63675" stroke="#C5CCD1"/>
<line x1="115.646" y1="137.363" x2="255.646" y2="-2.63675" stroke="#C5CCD1"/>
<line x1="123.646" y1="137.363" x2="263.646" y2="-2.63675" stroke="#C5CCD1"/>
<line x1="131.646" y1="137.363" x2="271.646" y2="-2.63675" stroke="#C5CCD1"/>
<line x1="139.646" y1="137.363" x2="279.646" y2="-2.63675" stroke="#C5CCD1"/>
<line x1="147.646" y1="137.363" x2="287.646" y2="-2.63675" stroke="#C5CCD1"/>
<line x1="155.646" y1="137.363" x2="295.646" y2="-2.63675" stroke="#C5CCD1"/>
<line x1="163.646" y1="137.363" x2="303.646" y2="-2.63675" stroke="#C5CCD1"/>
<line x1="171.646" y1="137.363" x2="311.646" y2="-2.63675" stroke="#C5CCD1"/>
<line x1="179.646" y1="137.363" x2="319.646" y2="-2.63675" stroke="#C5CCD1"/>
<line x1="187.646" y1="137.363" x2="327.646" y2="-2.63675" stroke="#C5CCD1"/>
<line x1="195.646" y1="137.363" x2="335.646" y2="-2.63675" stroke="#C5CCD1"/>
<line x1="203.646" y1="137.363" x2="343.646" y2="-2.63675" stroke="#C5CCD1"/>
<line x1="211.646" y1="137.363" x2="351.646" y2="-2.63675" stroke="#C5CCD1"/>
<line x1="219.646" y1="137.363" x2="359.646" y2="-2.63675" stroke="#C5CCD1"/>
<line x1="227.646" y1="137.363" x2="367.646" y2="-2.63675" stroke="#C5CCD1"/>
<line x1="235.646" y1="137.363" x2="375.646" y2="-2.63675" stroke="#C5CCD1"/>
<line x1="243.646" y1="137.363" x2="383.646" y2="-2.63675" stroke="#C5CCD1"/>
<line x1="251.646" y1="137.363" x2="391.646" y2="-2.63675" stroke="#C5CCD1"/>
<line x1="259.646" y1="137.363" x2="399.646" y2="-2.63675" stroke="#C5CCD1"/>
<line x1="267.646" y1="137.363" x2="407.646" y2="-2.63675" stroke="#C5CCD1"/>
<line x1="275.646" y1="137.363" x2="415.646" y2="-2.63675" stroke="#C5CCD1"/>
<line x1="283.646" y1="137.363" x2="423.646" y2="-2.63675" stroke="#C5CCD1"/>
<line x1="291.646" y1="137.363" x2="431.646" y2="-2.63675" stroke="#C5CCD1"/>
<line x1="299.646" y1="137.363" x2="439.646" y2="-2.63675" stroke="#C5CCD1"/>
<line x1="307.646" y1="137.363" x2="447.646" y2="-2.63675" stroke="#C5CCD1"/>
<line x1="315.646" y1="137.363" x2="455.646" y2="-2.63675" stroke="#C5CCD1"/>
<line x1="323.646" y1="137.363" x2="463.646" y2="-2.63675" stroke="#C5CCD1"/>
<line x1="331.646" y1="137.363" x2="471.646" y2="-2.63675" stroke="#C5CCD1"/>
<line x1="339.646" y1="137.363" x2="479.646" y2="-2.63675" stroke="#C5CCD1"/>
<line x1="347.646" y1="137.363" x2="487.646" y2="-2.63675" stroke="#C5CCD1"/>
<line x1="355.646" y1="137.363" x2="495.646" y2="-2.63675" stroke="#C5CCD1"/>
<line x1="363.646" y1="137.363" x2="503.646" y2="-2.63675" stroke="#C5CCD1"/>
<line x1="371.646" y1="137.363" x2="511.646" y2="-2.63675" stroke="#C5CCD1"/>
<line x1="379.646" y1="137.363" x2="519.646" y2="-2.63675" stroke="#C5CCD1"/>
<line x1="387.646" y1="137.363" x2="527.646" y2="-2.63675" stroke="#C5CCD1"/>
<line x1="395.646" y1="137.363" x2="535.646" y2="-2.63675" stroke="#C5CCD1"/>
<line x1="403.646" y1="137.363" x2="543.646" y2="-2.63675" stroke="#C5CCD1"/>
<line x1="411.646" y1="137.363" x2="551.646" y2="-2.63675" stroke="#C5CCD1"/>
<line x1="419.646" y1="137.363" x2="559.646" y2="-2.63675" stroke="#C5CCD1"/>
<line x1="427.646" y1="137.363" x2="567.646" y2="-2.63675" stroke="#C5CCD1"/>
<line x1="435.646" y1="137.363" x2="575.646" y2="-2.63675" stroke="#C5CCD1"/>
<line x1="443.646" y1="137.363" x2="583.646" y2="-2.63675" stroke="#C5CCD1"/>
<line x1="451.646" y1="137.363" x2="591.646" y2="-2.63675" stroke="#C5CCD1"/>
<line x1="459.646" y1="137.363" x2="599.646" y2="-2.63675" stroke="#C5CCD1"/>
<line x1="467.646" y1="137.363" x2="607.646" y2="-2.63675" stroke="#C5CCD1"/>
<line x1="475.646" y1="137.363" x2="615.646" y2="-2.63675" stroke="#C5CCD1"/>
<line x1="483.646" y1="137.363" x2="623.646" y2="-2.63675" stroke="#C5CCD1"/>
<line x1="491.646" y1="137.363" x2="631.646" y2="-2.63675" stroke="#C5CCD1"/>
<line x1="499.646" y1="137.363" x2="639.646" y2="-2.63675" stroke="#C5CCD1"/>
<line x1="507.646" y1="137.363" x2="647.646" y2="-2.63675" stroke="#C5CCD1"/>
<line x1="515.646" y1="137.363" x2="655.646" y2="-2.63675" stroke="#C5CCD1"/>
<line x1="523.646" y1="137.363" x2="663.646" y2="-2.63675" stroke="#C5CCD1"/>
<line x1="531.646" y1="137.363" x2="671.646" y2="-2.63675" stroke="#C5CCD1"/>
<line x1="539.646" y1="137.363" x2="679.646" y2="-2.63675" stroke="#C5CCD1"/>
<line x1="547.646" y1="137.363" x2="687.646" y2="-2.63675" stroke="#C5CCD1"/>
<line x1="555.646" y1="137.363" x2="695.646" y2="-2.63675" stroke="#C5CCD1"/>
<line x1="563.646" y1="137.363" x2="703.646" y2="-2.63675" stroke="#C5CCD1"/>
<line x1="571.646" y1="137.363" x2="711.646" y2="-2.63675" stroke="#C5CCD1"/>
<line x1="579.646" y1="137.363" x2="719.646" y2="-2.63675" stroke="#C5CCD1"/>
<line x1="587.646" y1="137.363" x2="727.646" y2="-2.63675" stroke="#C5CCD1"/>
<line x1="595.646" y1="137.363" x2="735.646" y2="-2.63675" stroke="#C5CCD1"/>
<line x1="603.646" y1="137.363" x2="743.646" y2="-2.63675" stroke="#C5CCD1"/>
<line x1="611.646" y1="137.363" x2="751.646" y2="-2.63675" stroke="#C5CCD1"/>
<line x1="619.646" y1="137.363" x2="759.646" y2="-2.63675" stroke="#C5CCD1"/>
<line x1="627.646" y1="137.363" x2="767.646" y2="-2.63675" stroke="#C5CCD1"/>
<line x1="635.646" y1="137.363" x2="775.646" y2="-2.63675" stroke="#C5CCD1"/>
<line x1="643.646" y1="137.363" x2="783.646" y2="-2.63675" stroke="#C5CCD1"/>
<line x1="651.646" y1="137.363" x2="791.646" y2="-2.63675" stroke="#C5CCD1"/>
<line x1="659.646" y1="137.363" x2="799.646" y2="-2.63675" stroke="#C5CCD1"/>
<line x1="667.646" y1="137.363" x2="807.646" y2="-2.63675" stroke="#C5CCD1"/>
<line x1="675.646" y1="137.363" x2="815.646" y2="-2.63675" stroke="#C5CCD1"/>
<line x1="683.646" y1="137.363" x2="823.646" y2="-2.63675" stroke="#C5CCD1"/>
<line x1="691.646" y1="137.363" x2="831.646" y2="-2.63675" stroke="#C5CCD1"/>
<line x1="699.646" y1="137.363" x2="839.646" y2="-2.63675" stroke="#C5CCD1"/>
<line x1="707.646" y1="137.363" x2="847.646" y2="-2.63675" stroke="#C5CCD1"/>
<line x1="715.646" y1="137.363" x2="855.646" y2="-2.63675" stroke="#C5CCD1"/>
</g>
<g clip-path="url(#clip2_71_33130)">
<line x1="691.646" y1="137.363" x2="831.646" y2="-2.63675" stroke="#C5CCD1"/>
<line x1="683.646" y1="137.363" x2="823.646" y2="-2.63675" stroke="#C5CCD1"/>
<line x1="675.646" y1="137.363" x2="815.646" y2="-2.63675" stroke="#C5CCD1"/>
<line x1="667.646" y1="137.363" x2="807.646" y2="-2.63675" stroke="#C5CCD1"/>
<line x1="659.646" y1="137.363" x2="799.646" y2="-2.63675" stroke="#C5CCD1"/>
<line x1="651.646" y1="137.363" x2="791.646" y2="-2.63675" stroke="#C5CCD1"/>
<line x1="643.646" y1="137.363" x2="783.646" y2="-2.63675" stroke="#C5CCD1"/>
<line x1="635.646" y1="137.363" x2="775.646" y2="-2.63675" stroke="#C5CCD1"/>
<line x1="627.646" y1="137.363" x2="767.646" y2="-2.63675" stroke="#C5CCD1"/>
<line x1="619.646" y1="137.363" x2="759.646" y2="-2.63675" stroke="#C5CCD1"/>
<line x1="611.646" y1="137.363" x2="751.646" y2="-2.63675" stroke="#C5CCD1"/>
<line x1="603.646" y1="137.363" x2="743.646" y2="-2.63675" stroke="#C5CCD1"/>
<line x1="595.646" y1="137.363" x2="735.646" y2="-2.63675" stroke="#C5CCD1"/>
<line x1="587.646" y1="137.363" x2="727.646" y2="-2.63675" stroke="#C5CCD1"/>
<line x1="699.646" y1="137.363" x2="839.646" y2="-2.63675" stroke="#C5CCD1"/>
<line x1="707.646" y1="137.363" x2="847.646" y2="-2.63675" stroke="#C5CCD1"/>
<line x1="715.646" y1="137.363" x2="855.646" y2="-2.63675" stroke="#C5CCD1"/>
<line x1="723.646" y1="137.363" x2="863.646" y2="-2.63675" stroke="#C5CCD1"/>
<line x1="731.646" y1="137.363" x2="871.646" y2="-2.63675" stroke="#C5CCD1"/>
<line x1="739.646" y1="137.363" x2="879.646" y2="-2.63675" stroke="#C5CCD1"/>
<line x1="747.646" y1="137.363" x2="887.646" y2="-2.63675" stroke="#C5CCD1"/>
<line x1="755.646" y1="137.363" x2="895.646" y2="-2.63675" stroke="#C5CCD1"/>
<line x1="763.646" y1="137.363" x2="903.646" y2="-2.63675" stroke="#C5CCD1"/>
<line x1="771.646" y1="137.363" x2="911.646" y2="-2.63675" stroke="#C5CCD1"/>
<line x1="779.646" y1="137.363" x2="919.646" y2="-2.63675" stroke="#C5CCD1"/>
<line x1="787.646" y1="137.363" x2="927.646" y2="-2.63675" stroke="#C5CCD1"/>
<line x1="795.646" y1="137.363" x2="935.646" y2="-2.63675" stroke="#C5CCD1"/>
<line x1="803.646" y1="137.363" x2="943.646" y2="-2.63675" stroke="#C5CCD1"/>
<line x1="811.646" y1="137.363" x2="951.646" y2="-2.63675" stroke="#C5CCD1"/>
<line x1="819.646" y1="137.363" x2="959.646" y2="-2.63675" stroke="#C5CCD1"/>
<line x1="827.646" y1="137.363" x2="967.646" y2="-2.63675" stroke="#C5CCD1"/>
<line x1="835.646" y1="137.363" x2="975.646" y2="-2.63675" stroke="#C5CCD1"/>
<line x1="843.646" y1="137.363" x2="983.646" y2="-2.63675" stroke="#C5CCD1"/>
<line x1="851.646" y1="137.363" x2="991.646" y2="-2.63675" stroke="#C5CCD1"/>
<line x1="859.646" y1="137.363" x2="999.646" y2="-2.63675" stroke="#C5CCD1"/>
<line x1="867.646" y1="137.363" x2="1007.65" y2="-2.63675" stroke="#C5CCD1"/>
<line x1="875.646" y1="137.363" x2="1015.65" y2="-2.63675" stroke="#C5CCD1"/>
<line x1="883.646" y1="137.363" x2="1023.65" y2="-2.63675" stroke="#C5CCD1"/>
<line x1="891.646" y1="137.363" x2="1031.65" y2="-2.63675" stroke="#C5CCD1"/>
<line x1="899.646" y1="137.363" x2="1039.65" y2="-2.63675" stroke="#C5CCD1"/>
<line x1="907.646" y1="137.363" x2="1047.65" y2="-2.63675" stroke="#C5CCD1"/>
<line x1="915.646" y1="137.363" x2="1055.65" y2="-2.63675" stroke="#C5CCD1"/>
<line x1="923.646" y1="137.363" x2="1063.65" y2="-2.63675" stroke="#C5CCD1"/>
<line x1="931.646" y1="137.363" x2="1071.65" y2="-2.63675" stroke="#C5CCD1"/>
<line x1="939.646" y1="137.363" x2="1079.65" y2="-2.63675" stroke="#C5CCD1"/>
<line x1="947.646" y1="137.363" x2="1087.65" y2="-2.63675" stroke="#C5CCD1"/>
<line x1="955.646" y1="137.363" x2="1095.65" y2="-2.63675" stroke="#C5CCD1"/>
<line x1="963.646" y1="137.363" x2="1103.65" y2="-2.63675" stroke="#C5CCD1"/>
<line x1="971.646" y1="137.363" x2="1111.65" y2="-2.63675" stroke="#C5CCD1"/>
<line x1="979.646" y1="137.363" x2="1119.65" y2="-2.63675" stroke="#C5CCD1"/>
<line x1="987.646" y1="137.363" x2="1127.65" y2="-2.63675" stroke="#C5CCD1"/>
<line x1="995.646" y1="137.363" x2="1135.65" y2="-2.63675" stroke="#C5CCD1"/>
<line x1="1003.65" y1="137.363" x2="1143.65" y2="-2.63675" stroke="#C5CCD1"/>
<line x1="1011.65" y1="137.363" x2="1151.65" y2="-2.63675" stroke="#C5CCD1"/>
<line x1="1019.65" y1="137.363" x2="1159.65" y2="-2.63675" stroke="#C5CCD1"/>
<line x1="1027.65" y1="137.363" x2="1167.65" y2="-2.63675" stroke="#C5CCD1"/>
<line x1="1035.65" y1="137.363" x2="1175.65" y2="-2.63675" stroke="#C5CCD1"/>
<line x1="1043.65" y1="137.363" x2="1183.65" y2="-2.63675" stroke="#C5CCD1"/>
<line x1="1051.65" y1="137.363" x2="1191.65" y2="-2.63675" stroke="#C5CCD1"/>
<line x1="1059.65" y1="137.363" x2="1199.65" y2="-2.63675" stroke="#C5CCD1"/>
<line x1="1067.65" y1="137.363" x2="1207.65" y2="-2.63675" stroke="#C5CCD1"/>
<line x1="1075.65" y1="137.363" x2="1215.65" y2="-2.63675" stroke="#C5CCD1"/>
<line x1="1083.65" y1="137.363" x2="1223.65" y2="-2.63675" stroke="#C5CCD1"/>
<line x1="1091.65" y1="137.363" x2="1231.65" y2="-2.63675" stroke="#C5CCD1"/>
<line x1="1099.65" y1="137.363" x2="1239.65" y2="-2.63675" stroke="#C5CCD1"/>
<line x1="1107.65" y1="137.363" x2="1247.65" y2="-2.63675" stroke="#C5CCD1"/>
<line x1="1115.65" y1="137.363" x2="1255.65" y2="-2.63675" stroke="#C5CCD1"/>
<line x1="1123.65" y1="137.363" x2="1263.65" y2="-2.63675" stroke="#C5CCD1"/>
<line x1="1131.65" y1="137.363" x2="1271.65" y2="-2.63675" stroke="#C5CCD1"/>
<line x1="1139.65" y1="137.363" x2="1279.65" y2="-2.63675" stroke="#C5CCD1"/>
<line x1="1147.65" y1="137.363" x2="1287.65" y2="-2.63675" stroke="#C5CCD1"/>
<line x1="1155.65" y1="137.363" x2="1295.65" y2="-2.63675" stroke="#C5CCD1"/>
<line x1="1163.65" y1="137.363" x2="1303.65" y2="-2.63675" stroke="#C5CCD1"/>
<line x1="1171.65" y1="137.363" x2="1311.65" y2="-2.63675" stroke="#C5CCD1"/>
<line x1="1179.65" y1="137.363" x2="1319.65" y2="-2.63675" stroke="#C5CCD1"/>
<line x1="1187.65" y1="137.363" x2="1327.65" y2="-2.63675" stroke="#C5CCD1"/>
<line x1="1195.65" y1="137.363" x2="1335.65" y2="-2.63675" stroke="#C5CCD1"/>
<line x1="1203.65" y1="137.363" x2="1343.65" y2="-2.63675" stroke="#C5CCD1"/>
<line x1="1211.65" y1="137.363" x2="1351.65" y2="-2.63675" stroke="#C5CCD1"/>
<line x1="1219.65" y1="137.363" x2="1359.65" y2="-2.63675" stroke="#C5CCD1"/>
<line x1="1227.65" y1="137.363" x2="1367.65" y2="-2.63675" stroke="#C5CCD1"/>
<line x1="1235.65" y1="137.363" x2="1375.65" y2="-2.63675" stroke="#C5CCD1"/>
<line x1="1243.65" y1="137.363" x2="1383.65" y2="-2.63675" stroke="#C5CCD1"/>
<line x1="1251.65" y1="137.363" x2="1391.65" y2="-2.63675" stroke="#C5CCD1"/>
<line x1="1259.65" y1="137.363" x2="1399.65" y2="-2.63675" stroke="#C5CCD1"/>
<line x1="1267.65" y1="137.363" x2="1407.65" y2="-2.63675" stroke="#C5CCD1"/>
<line x1="1275.65" y1="137.363" x2="1415.65" y2="-2.63675" stroke="#C5CCD1"/>
<line x1="1283.65" y1="137.363" x2="1423.65" y2="-2.63675" stroke="#C5CCD1"/>
<line x1="1291.65" y1="137.363" x2="1431.65" y2="-2.63675" stroke="#C5CCD1"/>
<line x1="1299.65" y1="137.363" x2="1439.65" y2="-2.63675" stroke="#C5CCD1"/>
<line x1="1307.65" y1="137.363" x2="1447.65" y2="-2.63675" stroke="#C5CCD1"/>
<line x1="1315.65" y1="137.363" x2="1455.65" y2="-2.63675" stroke="#C5CCD1"/>
<line x1="1323.65" y1="137.363" x2="1463.65" y2="-2.63675" stroke="#C5CCD1"/>
<line x1="1331.65" y1="137.363" x2="1471.65" y2="-2.63675" stroke="#C5CCD1"/>
<line x1="1339.65" y1="137.363" x2="1479.65" y2="-2.63675" stroke="#C5CCD1"/>
<line x1="1347.65" y1="137.363" x2="1487.65" y2="-2.63675" stroke="#C5CCD1"/>
<line x1="1355.65" y1="137.363" x2="1495.65" y2="-2.63675" stroke="#C5CCD1"/>
<line x1="1363.65" y1="137.363" x2="1503.65" y2="-2.63675" stroke="#C5CCD1"/>
<line x1="1371.65" y1="137.363" x2="1511.65" y2="-2.63675" stroke="#C5CCD1"/>
<line x1="1379.65" y1="137.363" x2="1519.65" y2="-2.63675" stroke="#C5CCD1"/>
<line x1="1387.65" y1="137.363" x2="1527.65" y2="-2.63675" stroke="#C5CCD1"/>
<line x1="1395.65" y1="137.363" x2="1535.65" y2="-2.63675" stroke="#C5CCD1"/>
<line x1="1403.65" y1="137.363" x2="1543.65" y2="-2.63675" stroke="#C5CCD1"/>
<line x1="1411.65" y1="137.363" x2="1551.65" y2="-2.63675" stroke="#C5CCD1"/>
<line x1="1419.65" y1="137.363" x2="1559.65" y2="-2.63675" stroke="#C5CCD1"/>
<line x1="1427.65" y1="137.363" x2="1567.65" y2="-2.63675" stroke="#C5CCD1"/>
<line x1="1435.65" y1="137.363" x2="1575.65" y2="-2.63675" stroke="#C5CCD1"/>
</g>
<rect width="1440" height="138" fill="url(#paint0_linear_71_33130)"/>
</g>
</g>
<defs>
<linearGradient id="paint0_linear_71_33130" x1="720" y1="132" x2="720" y2="0" gradientUnits="userSpaceOnUse">
<stop stop-color="white"/>
<stop offset="1" stop-color="white" stop-opacity="0"/>
</linearGradient>
<clipPath id="clip0_71_33130">
<rect width="1440" height="138" fill="white"/>
</clipPath>
<clipPath id="clip1_71_33130">
<rect width="720" height="138" fill="white" transform="translate(0 -2)"/>
</clipPath>
<clipPath id="clip2_71_33130">
<rect width="720" height="138" fill="white" transform="translate(720 -2)"/>
</clipPath>
</defs>
</svg>
